<?xml version="1.0" encoding="UTF-8" standalone="no"?>
<svg
   xmlns:dc="http://purl.org/dc/elements/1.1/"
   xmlns:cc="http://creativecommons.org/ns#"
   xmlns:rdf="http://www.w3.org/1999/02/22-rdf-syntax-ns#"
   xmlns:svg="http://www.w3.org/2000/svg"
   xmlns="http://www.w3.org/2000/svg"
   xmlns:sodipodi="http://sodipodi.sourceforge.net/DTD/sodipodi-0.dtd"
   xmlns:inkscape="http://www.inkscape.org/namespaces/inkscape"
   version="1.1"
   x="0px"
   y="0px"
   viewBox="0 0 42 42"
   style="enable-background:new 0 0 42 42;"
   xml:space="preserve"
   id="svg8"
   sodipodi:docname="email_view.svg"
   inkscape:version="0.92.3 (2405546, 2018-03-11)"><metadata
     id="metadata14"><rdf:RDF><cc:Work
         rdf:about=""><dc:format>image/svg+xml</dc:format><dc:type
           rdf:resource="http://purl.org/dc/dcmitype/StillImage" /></cc:Work></rdf:RDF></metadata><defs
     id="defs12" /><sodipodi:namedview
     pagecolor="#ffffff"
     bordercolor="#666666"
     borderopacity="1"
     objecttolerance="10"
     gridtolerance="10"
     guidetolerance="10"
     inkscape:pageopacity="0"
     inkscape:pageshadow="2"
     inkscape:window-width="3360"
     inkscape:window-height="1780"
     id="namedview10"
     showgrid="false"
     inkscape:zoom="5.6190476"
     inkscape:cx="-18.686441"
     inkscape:cy="21"
     inkscape:window-x="4468"
     inkscape:window-y="-12"
     inkscape:window-maximized="1"
     inkscape:current-layer="svg8" /><path
     inkscape:connector-curvature="0"
     d="M 28.4,12.855932 H 13.6 a 3.611,3.611 0 0 0 -3.6000004,3.600001 v 9.8 a 3.611,3.611 0 0 0 3.6000004,3.6 h 14.8 a 3.611,3.611 0 0 0 3.6,-3.6 v -9.8 a 3.611,3.611 0 0 0 -3.6,-3.600001 z m -14.8,2.000001 h 14.8 a 1.268,1.268 0 0 1 0.34,0.04 l -7.74,6.01 -7.74,-6.01 a 1.268,1.268 0 0 1 0.34,-0.04 z m 16.4,11.4 a 1.6,1.6 0 0 1 -1.6,1.6 H 13.6 a 1.6,1.6 0 0 1 -1.6,-1.6 v -9.8 a 1.562,1.562 0 0 1 0.11,-0.57 l 8.43,6.56 a 0.741,0.741 0 0 0 0.92,0 l 8.43,-6.56 a 1.562,1.562 0 0 1 0.11,0.57 z"
     style="fill:#ffffff;fill-opacity:1"
     id="path4" /></svg>