<?xml version="1.0" encoding="iso-8859-1"?>
<!-- Generator: Adobe Illustrator 19.0.0, SVG Export Plug-In . SVG Version: 6.00 Build 0)  -->
<svg version="1.1" id="Layer_1" xmlns="http://www.w3.org/2000/svg" xmlns:xlink="http://www.w3.org/1999/xlink" x="0px" y="0px"
	 viewBox="0 0 512.001 512.001" style="enable-background:new 0 0 512.001 512.001;" xml:space="preserve">
<g>
	<g>
		<path d="M509.117,418.621l-290.64-290.641h175.311c5.436,0,9.845-4.408,9.845-9.845V9.845c0-5.436-4.408-9.845-9.845-9.845H9.845
			C4.409,0,0,4.408,0,9.845v108.291c0,0.756,0.085,1.491,0.246,2.196v273.455c0,5.436,4.408,9.845,9.845,9.845h108.291
			c5.436,0,9.845-4.408,9.845-9.845V218.722l290.394,290.395c1.923,1.922,4.442,2.884,6.961,2.884s5.039-0.962,6.961-2.884
			l76.573-76.573C512.962,428.699,512.962,422.466,509.117,418.621z M425.583,488.233L125.344,187.994
			c-1.883-1.883-4.402-2.883-6.963-2.883c-1.268,0-2.548,0.245-3.766,0.749c-3.678,1.524-6.077,5.113-6.077,9.096v188.987H19.936
			v-19.689h29.288c5.436,0,9.845-4.408,9.845-9.845c0-5.436-4.408-9.845-9.845-9.845H19.936V118.136
			c0-0.756-0.086-1.491-0.246-2.197V19.689h364.253v88.602H194.709c-3.982,0-7.572,2.399-9.095,6.077
			c-1.524,3.679-0.68,7.913,2.134,10.729l300.485,300.485L425.583,488.233z"/>
	</g>
</g>
<g>
	<g>
		<path d="M85.963,347.448c-1.83-1.832-4.37-2.885-6.959-2.885c-2.589,0-5.129,1.052-6.96,2.885s-2.884,4.371-2.884,6.96
			c0,2.589,1.052,5.129,2.884,6.959c1.831,1.831,4.371,2.885,6.96,2.885c2.589,0,5.129-1.053,6.959-2.885
			c1.831-1.83,2.885-4.37,2.885-6.959C88.848,351.819,87.795,349.279,85.963,347.448z"/>
	</g>
</g>
<g>
</g>
<g>
</g>
<g>
</g>
<g>
</g>
<g>
</g>
<g>
</g>
<g>
</g>
<g>
</g>
<g>
</g>
<g>
</g>
<g>
</g>
<g>
</g>
<g>
</g>
<g>
</g>
<g>
</g>
</svg>
